# xmcd
#
# Track frame offsets: 
#        150
#        11300
#        21919
#        32623
#        43085
#        54840
#        66737
#        78018
#        88637
#        99304
#        109544
#        122767
#        135367
#        147767
#        160423
#        171327
#        180509
#        192551
#        203068
#        214166
#        225835
#        238735
#        251454
#        262193
#        274614
#
# Disc length: 3824 seconds
#
# Revision: 5
# Processed by: cddbd v1.5.2PL0 Copyright (c) Steve Scherf et al.
# Submitted via: ExactAudioCopyFreeDBPlugin 1.0
#
DISCID=500eee19
DTITLE=Various Artist - Rhythm 'n' Blues:  Shouters [Membran Music] [
DTITLE=box set]
DYEAR=2005
DGENRE=Rhythm and Blues
TTITLE0=Big Joe Turner - Well All Right
TTITLE1=Harry Crafton - It's Been a Long Time Baby
TTITLE2=Roy Brown - Lollypop Mama
TTITLE3=Elmore Nixon - If You'll Be My Love
TTITLE4=Chris Powell - Rock the Joint
TTITLE5=Bull Moose Jackson - Nosey Joe
TTITLE6=Mr. (Joseph) "Google Eyes" August - O Ho Doodle
TTITLE7=Tommy Ridgley - Looped
TTITLE8=Smiley Lewis - Big Mamou
TTITLE9=Frank Motley - When the Saints
TTITLE10=Hal Singer - Rock Around the Clock
TTITLE11=Jimmy Preston - Oh Babe
TTITLE12=Mr. Sad Head - Sad Head Blues
TTITLE13=Champion Jack Dupree - Ain't No Meat on De Bone
TTITLE14=Melvin Smith - I'm Out of My Mind
TTITLE15=Gene Parrish - Screamin' in My Sleep
TTITLE16=Louis Jordan - Fat Back and Corn Liquor
TTITLE17=Amos Milburn - Real Pretty Mama
TTITLE18=Roy Brown - Butcher Pete
TTITLE19=Jimmy Preston - Rock the Joint
TTITLE20=Big Joe Turner and Wynonie Harris - Battle of the Blues, Part
TTITLE20=1
TTITLE21=Big Joe Turner and Wynonie Harris - Battle of the Blues, Part
TTITLE21=2
TTITLE22=Big Joe Turner and Wynonie Harris - Jumpin' Tonight
TTITLE23=Tiny Bradshaw - The Train Kept A-Rollin'
TTITLE24=Hot Lips Page - Jungle King
EXTD=
EXTT0=
EXTT1=
EXTT2=
EXTT3=
EXTT4=
EXTT5=
EXTT6=
EXTT7=
EXTT8=
EXTT9=
EXTT10=
EXTT11=
EXTT12=
EXTT13=
EXTT14=
EXTT15=
EXTT16=
EXTT17=
EXTT18=
EXTT19=
EXTT20=
EXTT21=
EXTT22=
EXTT23=
EXTT24=
PLAYORDER=
